# xmcd CD database file
#
# Track frame offsets:
#	150
#	16847
#	38078
#	50063
#	67126
#	80143
#	92742
#	105829
#	131157
#	144731
#	165249
#	177134
#	189665
#	210811
#	225149
#	247098
#
# Disc length: 3703 seconds
#
# Revision: 8
# Processed by: cddbd v1.5.2PL0 Copyright (c) Steve Scherf et al.
# Submitted via: jetAudio 7
#
DISCID=cf0e7510
DTITLE=Various Artist - House of Blues - Essential Blues 3 [CD2)
DYEAR=1999
DGENRE=Blues
TTITLE0=Robert Ward - Toehold
TTITLE1=Lonnie Brooks - Voodoo Daddy
TTITLE2=Little Milton - We're Gonna Make It
TTITLE3=Robert Clay - Change of Heart, Change of Mind
TTITLE4=Otis Spann - Keep Your Hands Out of My Pocket
TTITLE5=Alvin Youngblood Heart - Screamin' and Hollerin' the Blues
TTITLE6=Jimmy Reed - You've Got Me Dizzy
TTITLE7=Ruth Brown - I Don't Know
TTITLE8=Lightin' Hopkins - Katie Mae
TTITLE9=Maria Muldaur and Dr. John - Best of Me
TTITLE10=Robert Lockwood, Jr. - Driving Wheel
TTITLE11=Professor Longhair - Go to the Mardi Gras
TTITLE12=Taj Mahal - Honky Tonk Woman
TTITLE13=Clarence "Gatemouth" Brown - C-Jam Blues
TTITLE14=Charles Brown - Fool's Paradise
TTITLE15=Junior Kimbrough - Meet Me in the City
EXTD=YEAR: 1999
EXTT0=
EXTT1=
EXTT2=
EXTT3=
EXTT4=
EXTT5=
EXTT6=
EXTT7=
EXTT8=
EXTT9=
EXTT10=
EXTT11=
EXTT12=
EXTT13=
EXTT14=
EXTT15=
PLAYORDER=
